<svg width="150" height="53" viewBox="0 0 150 53" fill="none" xmlns="http://www.w3.org/2000/svg">
<path fill-rule="evenodd" clip-rule="evenodd" d="M14.392 0.0377436C14.414 0.0064924 14.4539 -0.00751759 14.4906 0.00399594L39.5649 7.75432C39.5916 7.7627 39.611 7.78203 39.6207 7.80532H39.779V31.4873C39.7797 31.5205 39.7701 31.5542 39.7495 31.5833L28.5007 47.4556C28.4594 47.5139 28.3862 47.5357 28.3222 47.514L27.1445 47.1427V49.3358C27.1446 49.3541 27.1415 49.3726 27.1352 49.3903C27.1348 49.3914 27.1344 49.3926 27.134 49.3937C27.1334 49.3952 27.1328 49.3966 27.1323 49.398C27.1319 49.3989 27.1315 49.3997 27.1312 49.4005C27.1305 49.402 27.1299 49.4035 27.1292 49.405C27.1286 49.4062 27.128 49.4075 27.1273 49.4087C27.1269 49.4097 27.1264 49.4106 27.1259 49.4115C27.1252 49.4129 27.1244 49.4142 27.1237 49.4156C27.1219 49.4188 27.12 49.422 27.1179 49.4251L25.3246 52.139C25.3188 52.1478 25.3122 52.1558 25.305 52.1632C25.2907 52.1776 25.2741 52.1889 25.2562 52.1967C25.2552 52.1971 25.2542 52.1976 25.2532 52.198C25.2492 52.1997 25.2452 52.2011 25.2411 52.2024C25.2405 52.2026 25.2398 52.2029 25.2392 52.2031C25.2382 52.2034 25.2372 52.2036 25.2362 52.2039C25.2226 52.2078 25.2084 52.2099 25.194 52.2099C25.1935 52.2099 25.193 52.2099 25.1925 52.2099C25.1893 52.2099 25.1861 52.2098 25.1829 52.2096C25.1814 52.2095 25.18 52.2094 25.1786 52.2093C25.1782 52.2092 25.1779 52.2092 25.1775 52.2092C25.167 52.2081 25.1565 52.2059 25.1462 52.2027L0.122607 44.4724C0.039234 44.4467 -0.00768735 44.3575 0.0178074 44.2733C0.0216721 44.2606 0.0269826 44.2486 0.0334945 44.2377H0.0109081V20.6421C-0.00296341 20.6164 -0.00429347 20.5843 0.0109081 20.5564V20.5526H0.0131051C0.0141207 20.5509 0.0152041 20.5492 0.0163427 20.5476L14.392 0.0377436ZM0.326655 44.202L25.0354 51.835V28.3416L0.326655 20.7658V44.202ZM25.3512 28.238V51.5244L26.8287 49.2883V26.1299L25.3512 28.238ZM25.3512 25.0541L27.0681 25.5848C27.1069 25.597 27.1302 25.632 27.1308 25.6689C27.1396 25.6887 27.1445 25.7106 27.1445 25.7337V46.8086L28.2144 47.146V23.827L25.3512 22.9418V25.0541ZM28.5302 23.7012V46.8661L39.4632 31.4393V8.10297L28.5302 23.7012ZM22.9058 22.0504V24.2981L25.0354 24.9565V22.773H25.0569C25.0587 22.7591 25.0639 22.7453 25.0727 22.7327L30.5783 14.878V11.1038L22.9058 22.0504ZM9.08189 20.0249L22.59 24.2005V22.1004L9.04974 17.9148L9.08189 20.0249ZM15.9399 3.8364C15.9033 3.82489 15.8641 3.83886 15.8413 3.87011L5.40273 18.7646C5.36769 18.814 5.39132 18.8839 5.44918 18.902L8.7646 19.9268L8.7328 17.8411C8.73268 17.833 8.73316 17.8251 8.73419 17.8173L8.71542 17.8115L16.8056 6.26826L30.803 10.5949C30.8369 10.6054 30.858 10.6355 30.8606 10.6679C30.8815 10.6949 30.894 10.729 30.894 10.766V14.4275L34.2624 9.62201C34.2975 9.57266 34.2739 9.50273 34.216 9.48464L15.9399 3.8364ZM14.0831 16.0746H14.0822L21.3671 18.3263L22.7601 16.3394L17.9036 14.8385L19.2966 12.8516L24.1532 14.3524L25.5462 12.3655L18.2614 10.1138L14.0831 16.0746Z" fill="white"/>
<path d="M51.3811 25.3077V8.31129H57.848C59.9099 8.31129 61.4875 8.68633 62.581 9.4364C63.6744 10.1705 64.2211 11.3355 64.2211 12.9314C64.2211 13.6336 64.0805 14.248 63.7994 14.7747C63.5182 15.2854 63.1043 15.6923 62.5575 15.9956C62.0265 16.2988 61.3782 16.4823 60.6128 16.5461V16.4983C62.003 16.594 63.0652 17.009 63.7994 17.7431C64.5492 18.4612 64.9241 19.4188 64.9241 20.6157C64.9241 22.1956 64.3773 23.3766 63.2839 24.1586C62.2061 24.9246 60.6597 25.3077 58.6446 25.3077H51.3811ZM54.9426 22.3393H58.4806C59.3397 22.3393 60.027 22.1637 60.5425 21.8126C61.0736 21.4456 61.3392 20.903 61.3392 20.1848C61.3392 19.4667 61.0736 18.924 60.5425 18.557C60.027 18.174 59.3397 17.9825 58.4806 17.9825H54.9426V22.3393ZM54.9426 15.3492H57.7543C58.629 15.3492 59.3241 15.1737 59.8396 14.8226C60.3707 14.4715 60.6362 13.9688 60.6362 13.3144C60.6362 12.6122 60.3785 12.1016 59.863 11.7824C59.3632 11.4472 58.6602 11.2797 57.7543 11.2797H54.9426V15.3492Z" fill="white"/>
<path d="M74.3696 25.6907C72.9637 25.6907 71.7453 25.4273 70.7144 24.9007C69.699 24.3741 68.9102 23.624 68.3479 22.6505C67.7855 21.661 67.5044 20.504 67.5044 19.1794V8.28735H71.0658V19.1794C71.0658 20.2806 71.347 21.1344 71.9093 21.7408C72.4873 22.3313 73.3074 22.6265 74.3696 22.6265C75.4317 22.6265 76.244 22.3313 76.8063 21.7408C77.3687 21.1344 77.6499 20.2806 77.6499 19.1794V8.28735H81.2113V19.1794C81.2113 20.504 80.9302 21.661 80.3678 22.6505C79.8211 23.624 79.0323 24.3741 78.0013 24.9007C76.9704 25.4273 75.7598 25.6907 74.3696 25.6907Z" fill="white"/>
<path d="M84.6738 25.3077V8.31129H88.2352V25.3077H84.6738Z" fill="white"/>
<path d="M91.6984 25.3077V8.31129H95.2599V24.3262L93.2917 22.2435H102.922V25.3077H91.6984Z" fill="white"/>
<path d="M104.741 25.3077V8.31129H110.481C113.184 8.31129 115.261 9.05339 116.714 10.5376C118.167 12.0058 118.893 14.1044 118.893 16.8334C118.893 19.5464 118.174 21.6371 116.737 23.1053C115.316 24.5735 113.277 25.3077 110.622 25.3077H104.741ZM108.302 22.2435H110.481C112.09 22.2435 113.277 21.8046 114.043 20.9269C114.824 20.0332 115.214 18.6607 115.214 16.8095C115.214 14.9582 114.824 13.5937 114.043 12.716C113.277 11.8223 112.09 11.3754 110.481 11.3754H108.302V22.2435Z" fill="white"/>
<path d="M121.238 25.3077V8.31129H132.813V11.3754H124.8V15.2774H132.532V18.2937H124.8V22.2435H133.001V25.3077H121.238Z" fill="white"/>
<path d="M135.745 25.3077V8.31129H143.032C144.251 8.31129 145.305 8.51876 146.195 8.93369C147.101 9.34863 147.797 9.93911 148.281 10.7051C148.765 11.4552 149.007 12.3489 149.007 13.3863C149.007 14.1683 148.843 14.8625 148.515 15.4689C148.203 16.0754 147.765 16.5701 147.203 16.9531C146.656 17.3361 146.024 17.5755 145.305 17.6713L145.235 17.4558C146.344 17.4558 147.187 17.7032 147.765 18.1979C148.343 18.6767 148.671 19.4188 148.749 20.4242L149.171 25.3077H145.539L145.235 20.9987C145.188 20.3444 144.985 19.8656 144.626 19.5624C144.282 19.2432 143.688 19.0836 142.845 19.0836H139.307V25.3077H135.745ZM139.307 16.0434H142.634C143.493 16.0434 144.157 15.844 144.626 15.445C145.11 15.03 145.352 14.4475 145.352 13.6975C145.352 12.9314 145.11 12.3569 144.626 11.9739C144.141 11.5749 143.438 11.3754 142.517 11.3754H139.307V16.0434Z" fill="white"/>
<path d="M55.674 43.9228C54.8217 43.9228 54.0726 43.7262 53.4266 43.3331C52.7807 42.931 52.2783 42.3591 51.9194 41.6175C51.5605 40.8759 51.3811 39.9913 51.3811 38.9638C51.3811 37.9363 51.5605 37.0517 51.9194 36.3101C52.2783 35.5595 52.7807 34.9832 53.4266 34.5811C54.0726 34.1791 54.8217 33.978 55.674 33.978C56.8314 33.978 57.7285 34.2684 58.3655 34.8492C59.0025 35.43 59.4197 36.2207 59.6171 37.2215L58.3925 37.3019C58.2579 36.6228 57.9708 36.0867 57.5312 35.6936C57.0916 35.3004 56.4725 35.1038 55.674 35.1038C55.064 35.1038 54.5257 35.2602 54.0591 35.5729C53.6016 35.8767 53.2427 36.319 52.9825 36.8998C52.7224 37.4716 52.5923 38.1596 52.5923 38.9638C52.5923 39.768 52.7224 40.456 52.9825 41.0278C53.2427 41.5997 53.6016 42.0375 54.0591 42.3413C54.5257 42.6451 55.064 42.797 55.674 42.797C56.5084 42.797 57.1544 42.5825 57.6119 42.1536C58.0695 41.7158 58.3566 41.1261 58.4732 40.3845L59.6978 40.4649C59.5812 41.1529 59.3524 41.756 59.0115 42.2743C58.6706 42.7925 58.2175 43.199 57.6523 43.4939C57.096 43.7798 56.4366 43.9228 55.674 43.9228Z" fill="white"/>
<path d="M68.2398 43.7083L71.6849 34.1925H73.2459L76.6911 43.7083H75.426L74.4706 41.001H70.4602L69.5048 43.7083H68.2398ZM70.8505 39.8752H74.0803L72.4654 35.1977L70.8505 39.8752Z" fill="white"/>
<path d="M86.0095 43.7083V34.1925H89.4412C90.5088 34.1925 91.3387 34.4471 91.9308 34.9564C92.5229 35.4657 92.819 36.1716 92.819 37.074C92.819 37.6816 92.6844 38.2088 92.4153 38.6555C92.1461 39.0934 91.7603 39.4284 91.2579 39.6607C90.7555 39.8931 90.1499 40.0092 89.4412 40.0092H87.1669V43.7083H86.0095ZM87.1669 38.8834H89.4412C90.1589 38.8834 90.6972 38.7315 91.0561 38.4277C91.4239 38.1239 91.6078 37.6727 91.6078 37.074C91.6078 36.4933 91.4239 36.0554 91.0561 35.7606C90.6972 35.4657 90.1589 35.3183 89.4412 35.3183H87.1669V38.8834Z" fill="white"/>
<path d="M102.574 43.7083V34.1925H103.731V43.7083H102.574Z" fill="white"/>
<path d="M115.634 43.7083V35.3183H112.66V34.1925H119.766V35.3183H116.792V43.7083H115.634Z" fill="white"/>
<path d="M127.058 43.7083L130.504 34.1925H132.065L135.51 43.7083H134.245L133.289 41.001H129.279L128.323 43.7083H127.058ZM129.669 39.8752H132.899L131.284 35.1977L129.669 39.8752Z" fill="white"/>
<path d="M144.065 43.7083V34.1925H145.222V43.1722L144.644 42.5825H150V43.7083H144.065Z" fill="white"/>
</svg>
