<svg width="40" height="53" viewBox="0 0 40 53" fill="none" xmlns="http://www.w3.org/2000/svg">
<path fill-rule="evenodd" clip-rule="evenodd" d="M14.392 0.0377436C14.414 0.0064924 14.4539 -0.00751759 14.4906 0.00399594L39.5649 7.75432C39.5916 7.7627 39.611 7.78203 39.6207 7.80532H39.779V31.4873C39.7797 31.5205 39.7701 31.5542 39.7495 31.5833L28.5007 47.4556C28.4594 47.5139 28.3862 47.5357 28.3222 47.514L27.1445 47.1427V49.3358C27.1446 49.3541 27.1415 49.3726 27.1352 49.3903C27.1348 49.3914 27.1344 49.3926 27.134 49.3937C27.1334 49.3952 27.1328 49.3966 27.1323 49.398C27.1319 49.3989 27.1315 49.3997 27.1312 49.4005C27.1305 49.402 27.1299 49.4035 27.1292 49.405C27.1286 49.4062 27.128 49.4075 27.1273 49.4087C27.1269 49.4097 27.1264 49.4106 27.1259 49.4115C27.1252 49.4129 27.1244 49.4142 27.1237 49.4156C27.1219 49.4188 27.12 49.422 27.1179 49.4251L25.3246 52.139C25.3188 52.1478 25.3122 52.1558 25.305 52.1632C25.2907 52.1776 25.2741 52.1889 25.2562 52.1967C25.2552 52.1971 25.2542 52.1976 25.2532 52.198C25.2492 52.1997 25.2452 52.2011 25.2411 52.2024C25.2405 52.2026 25.2398 52.2029 25.2392 52.2031C25.2382 52.2034 25.2372 52.2036 25.2362 52.2039C25.2226 52.2078 25.2084 52.2099 25.194 52.2099C25.1935 52.2099 25.193 52.2099 25.1925 52.2099C25.1893 52.2099 25.1861 52.2098 25.1829 52.2096C25.1814 52.2095 25.18 52.2094 25.1786 52.2093C25.1782 52.2092 25.1779 52.2092 25.1775 52.2092C25.167 52.2081 25.1565 52.2059 25.1462 52.2027L0.122607 44.4724C0.039234 44.4467 -0.00768735 44.3575 0.0178074 44.2733C0.0216721 44.2606 0.0269826 44.2486 0.0334945 44.2377H0.0109081V20.6421C-0.00296341 20.6164 -0.00429347 20.5843 0.0109081 20.5564V20.5526H0.0131051C0.0141207 20.5509 0.0152041 20.5492 0.0163427 20.5476L14.392 0.0377436ZM0.326655 44.202L25.0354 51.835V28.3416L0.326655 20.7658V44.202ZM25.3512 28.238V51.5244L26.8287 49.2883V26.1299L25.3512 28.238ZM25.3512 25.0541L27.0681 25.5848C27.1069 25.597 27.1302 25.632 27.1308 25.6689C27.1396 25.6887 27.1445 25.7106 27.1445 25.7337V46.8086L28.2144 47.146V23.827L25.3512 22.9418V25.0541ZM28.5302 23.7012V46.8661L39.4632 31.4393V8.10297L28.5302 23.7012ZM22.9058 22.0504V24.2981L25.0354 24.9565V22.773H25.0569C25.0587 22.7591 25.0639 22.7453 25.0727 22.7327L30.5783 14.878V11.1038L22.9058 22.0504ZM9.08189 20.0249L22.59 24.2005V22.1004L9.04974 17.9148L9.08189 20.0249ZM15.9399 3.8364C15.9033 3.82489 15.8641 3.83886 15.8413 3.87011L5.40273 18.7646C5.36769 18.814 5.39132 18.8839 5.44918 18.902L8.7646 19.9268L8.7328 17.8411C8.73268 17.833 8.73316 17.8251 8.73419 17.8173L8.71542 17.8115L16.8056 6.26826L30.803 10.5949C30.8369 10.6054 30.858 10.6355 30.8606 10.6679C30.8815 10.6949 30.894 10.729 30.894 10.766V14.4275L34.2624 9.62201C34.2975 9.57266 34.2739 9.50273 34.216 9.48464L15.9399 3.8364ZM14.0831 16.0746H14.0822L21.3671 18.3263L22.7601 16.3394L17.9036 14.8385L19.2966 12.8516L24.1532 14.3524L25.5462 12.3655L18.2614 10.1138L14.0831 16.0746Z" fill="white"/>
</svg>
